<mxfile host="app.diagrams.net" modified="2020-12-02T16:01:29.525Z" agent="5.0 (X11; Linux x86_64) AppleWebKit/537.36 (KHTML, like Gecko) Chrome/87.0.4280.66 Safari/537.36" etag="D5BcFsRPz1lB2KZsn-1Y" version="13.9.7" type="github">
  <diagram id="3o2nX8ZEg7qzyCOchL_K" name="Page-1">
    <mxGraphModel dx="747" dy="1141" grid="1" gridSize="10" guides="1" tooltips="1" connect="1" arrows="1" fold="1" page="1" pageScale="1" pageWidth="850" pageHeight="1100" math="0" shadow="0">
      <root>
        <mxCell id="0" />
        <mxCell id="1" parent="0" />
        <mxCell id="SJJJBfcOs4DDu29lnCjF-4" value="" style="rounded=0;whiteSpace=wrap;html=1;fillColor=#dae8fc;strokeColor=#6c8ebf;" parent="1" vertex="1">
          <mxGeometry x="80" y="280" width="150" height="60" as="geometry" />
        </mxCell>
        <mxCell id="SJJJBfcOs4DDu29lnCjF-1" value="" style="rounded=0;whiteSpace=wrap;html=1;fillColor=#dae8fc;strokeColor=#6c8ebf;" parent="1" vertex="1">
          <mxGeometry x="80" y="120" width="150" height="60" as="geometry" />
        </mxCell>
        <mxCell id="SJJJBfcOs4DDu29lnCjF-3" value="" style="rounded=0;whiteSpace=wrap;html=1;fillColor=#dae8fc;strokeColor=#6c8ebf;" parent="1" vertex="1">
          <mxGeometry x="80" y="200" width="150" height="60" as="geometry" />
        </mxCell>
        <mxCell id="SJJJBfcOs4DDu29lnCjF-5" value="" style="rounded=0;whiteSpace=wrap;html=1;fillColor=#dae8fc;strokeColor=#6c8ebf;" parent="1" vertex="1">
          <mxGeometry x="80" y="360" width="150" height="60" as="geometry" />
        </mxCell>
        <mxCell id="SJJJBfcOs4DDu29lnCjF-6" value="" style="endArrow=classic;html=1;" parent="1" edge="1">
          <mxGeometry width="50" height="50" relative="1" as="geometry">
            <mxPoint x="80" y="80" as="sourcePoint" />
            <mxPoint x="660" y="80" as="targetPoint" />
          </mxGeometry>
        </mxCell>
        <mxCell id="SJJJBfcOs4DDu29lnCjF-7" value="Time" style="text;html=1;strokeColor=none;fillColor=none;align=center;verticalAlign=middle;whiteSpace=wrap;rounded=0;" parent="1" vertex="1">
          <mxGeometry x="340" y="50" width="40" height="20" as="geometry" />
        </mxCell>
        <mxCell id="SJJJBfcOs4DDu29lnCjF-10" value="" style="rounded=0;whiteSpace=wrap;html=1;fillColor=#dae8fc;strokeColor=#6c8ebf;" parent="1" vertex="1">
          <mxGeometry x="510" y="200" width="150" height="60" as="geometry" />
        </mxCell>
        <mxCell id="SJJJBfcOs4DDu29lnCjF-11" value="" style="rounded=0;whiteSpace=wrap;html=1;fillColor=#dae8fc;strokeColor=#6c8ebf;" parent="1" vertex="1">
          <mxGeometry x="510" y="280" width="150" height="60" as="geometry" />
        </mxCell>
        <mxCell id="SJJJBfcOs4DDu29lnCjF-12" value="" style="rounded=0;whiteSpace=wrap;html=1;fillColor=#dae8fc;strokeColor=#6c8ebf;" parent="1" vertex="1">
          <mxGeometry x="510" y="360" width="150" height="60" as="geometry" />
        </mxCell>
        <mxCell id="SJJJBfcOs4DDu29lnCjF-13" value="Process" style="text;html=1;strokeColor=none;fillColor=none;align=center;verticalAlign=middle;whiteSpace=wrap;rounded=0;" parent="1" vertex="1">
          <mxGeometry x="10" y="90" width="40" height="20" as="geometry" />
        </mxCell>
        <mxCell id="SJJJBfcOs4DDu29lnCjF-14" value="0" style="text;html=1;strokeColor=none;fillColor=none;align=center;verticalAlign=middle;whiteSpace=wrap;rounded=0;" parent="1" vertex="1">
          <mxGeometry x="10" y="140" width="40" height="20" as="geometry" />
        </mxCell>
        <mxCell id="SJJJBfcOs4DDu29lnCjF-15" value="1" style="text;html=1;strokeColor=none;fillColor=none;align=center;verticalAlign=middle;whiteSpace=wrap;rounded=0;" parent="1" vertex="1">
          <mxGeometry x="10" y="220" width="40" height="20" as="geometry" />
        </mxCell>
        <mxCell id="SJJJBfcOs4DDu29lnCjF-16" value="2" style="text;html=1;strokeColor=none;fillColor=none;align=center;verticalAlign=middle;whiteSpace=wrap;rounded=0;" parent="1" vertex="1">
          <mxGeometry x="10" y="300" width="40" height="20" as="geometry" />
        </mxCell>
        <mxCell id="SJJJBfcOs4DDu29lnCjF-19" value="3" style="text;html=1;strokeColor=none;fillColor=none;align=center;verticalAlign=middle;whiteSpace=wrap;rounded=0;" parent="1" vertex="1">
          <mxGeometry x="10" y="380" width="40" height="20" as="geometry" />
        </mxCell>
        <mxCell id="SJJJBfcOs4DDu29lnCjF-22" value="" style="endArrow=classic;html=1;exitX=1;exitY=0.5;exitDx=0;exitDy=0;entryX=0;entryY=0;entryDx=0;entryDy=0;entryPerimeter=0;" parent="1" edge="1">
          <mxGeometry width="50" height="50" relative="1" as="geometry">
            <mxPoint x="230" y="150" as="sourcePoint" />
            <mxPoint x="310" y="240" as="targetPoint" />
          </mxGeometry>
        </mxCell>
        <mxCell id="SJJJBfcOs4DDu29lnCjF-23" value="" style="endArrow=classic;html=1;exitX=1;exitY=0.5;exitDx=0;exitDy=0;" parent="1" edge="1">
          <mxGeometry width="50" height="50" relative="1" as="geometry">
            <mxPoint x="230" y="230" as="sourcePoint" />
            <mxPoint x="310" y="264" as="targetPoint" />
          </mxGeometry>
        </mxCell>
        <mxCell id="SJJJBfcOs4DDu29lnCjF-25" value="" style="endArrow=classic;html=1;exitX=1;exitY=0.5;exitDx=0;exitDy=0;" parent="1" edge="1">
          <mxGeometry width="50" height="50" relative="1" as="geometry">
            <mxPoint x="230" y="310" as="sourcePoint" />
            <mxPoint x="310" y="296" as="targetPoint" />
          </mxGeometry>
        </mxCell>
        <mxCell id="SJJJBfcOs4DDu29lnCjF-26" value="" style="endArrow=classic;html=1;exitX=1;exitY=0.5;exitDx=0;exitDy=0;entryX=0;entryY=1;entryDx=0;entryDy=0;entryPerimeter=0;" parent="1" edge="1">
          <mxGeometry width="50" height="50" relative="1" as="geometry">
            <mxPoint x="230" y="390" as="sourcePoint" />
            <mxPoint x="310" y="320" as="targetPoint" />
          </mxGeometry>
        </mxCell>
        <mxCell id="SJJJBfcOs4DDu29lnCjF-27" value="" style="endArrow=classic;html=1;entryX=0;entryY=0.5;entryDx=0;entryDy=0;" parent="1" edge="1">
          <mxGeometry width="50" height="50" relative="1" as="geometry">
            <mxPoint x="430" y="242" as="sourcePoint" />
            <mxPoint x="510" y="150" as="targetPoint" />
          </mxGeometry>
        </mxCell>
        <mxCell id="SJJJBfcOs4DDu29lnCjF-28" value="" style="endArrow=classic;html=1;entryX=0;entryY=0.5;entryDx=0;entryDy=0;" parent="1" target="SJJJBfcOs4DDu29lnCjF-10" edge="1">
          <mxGeometry width="50" height="50" relative="1" as="geometry">
            <mxPoint x="430" y="263" as="sourcePoint" />
            <mxPoint x="440" y="560" as="targetPoint" />
          </mxGeometry>
        </mxCell>
        <mxCell id="SJJJBfcOs4DDu29lnCjF-29" value="" style="endArrow=classic;html=1;entryX=0;entryY=0.5;entryDx=0;entryDy=0;" parent="1" target="SJJJBfcOs4DDu29lnCjF-11" edge="1">
          <mxGeometry width="50" height="50" relative="1" as="geometry">
            <mxPoint x="430" y="297" as="sourcePoint" />
            <mxPoint x="500" y="320" as="targetPoint" />
          </mxGeometry>
        </mxCell>
        <mxCell id="SJJJBfcOs4DDu29lnCjF-30" value="" style="endArrow=classic;html=1;entryX=0;entryY=0.5;entryDx=0;entryDy=0;" parent="1" target="SJJJBfcOs4DDu29lnCjF-12" edge="1">
          <mxGeometry width="50" height="50" relative="1" as="geometry">
            <mxPoint x="430" y="322" as="sourcePoint" />
            <mxPoint x="250" y="360" as="targetPoint" />
          </mxGeometry>
        </mxCell>
        <mxCell id="SJJJBfcOs4DDu29lnCjF-32" value="MPI_Alltoall" style="rounded=0;whiteSpace=wrap;html=1;fillColor=#f8cecc;strokeColor=#b85450;" parent="1" vertex="1">
          <mxGeometry x="310" y="240" width="120" height="80" as="geometry" />
        </mxCell>
        <mxCell id="fdlmVdXTufxbHPEUm_Pm-2" value="" style="rounded=0;whiteSpace=wrap;html=1;" parent="1" vertex="1">
          <mxGeometry x="200" y="220" width="10" height="20" as="geometry" />
        </mxCell>
        <mxCell id="fdlmVdXTufxbHPEUm_Pm-3" value="" style="rounded=0;whiteSpace=wrap;html=1;" parent="1" vertex="1">
          <mxGeometry x="170" y="220" width="10" height="20" as="geometry" />
        </mxCell>
        <mxCell id="fdlmVdXTufxbHPEUm_Pm-4" value="" style="rounded=0;whiteSpace=wrap;html=1;" parent="1" vertex="1">
          <mxGeometry x="180" y="220" width="10" height="20" as="geometry" />
        </mxCell>
        <mxCell id="fdlmVdXTufxbHPEUm_Pm-5" value="" style="rounded=0;whiteSpace=wrap;html=1;fillColor=#647687;strokeColor=#314354;fontColor=#ffffff;" parent="1" vertex="1">
          <mxGeometry x="100" y="300" width="10" height="20" as="geometry" />
        </mxCell>
        <mxCell id="fdlmVdXTufxbHPEUm_Pm-6" value="" style="rounded=0;whiteSpace=wrap;html=1;fillColor=#76608a;strokeColor=#432D57;fontColor=#ffffff;" parent="1" vertex="1">
          <mxGeometry x="100" y="220" width="10" height="20" as="geometry" />
        </mxCell>
        <mxCell id="fdlmVdXTufxbHPEUm_Pm-8" value="" style="rounded=0;whiteSpace=wrap;html=1;fillColor=#a20025;strokeColor=#6F0000;fontColor=#ffffff;" parent="1" vertex="1">
          <mxGeometry x="100" y="380" width="10" height="20" as="geometry" />
        </mxCell>
        <mxCell id="B5EviOWJvpMuu2dHJ6cr-9" value="" style="rounded=0;whiteSpace=wrap;html=1;" parent="1" vertex="1">
          <mxGeometry x="190" y="220" width="10" height="20" as="geometry" />
        </mxCell>
        <mxCell id="B5EviOWJvpMuu2dHJ6cr-17" value="sendbuf" style="text;html=1;strokeColor=none;fillColor=none;align=center;verticalAlign=middle;whiteSpace=wrap;rounded=0;" parent="1" vertex="1">
          <mxGeometry x="100" y="450" width="40" height="20" as="geometry" />
        </mxCell>
        <mxCell id="B5EviOWJvpMuu2dHJ6cr-18" value="recvbuf" style="text;html=1;strokeColor=none;fillColor=none;align=center;verticalAlign=middle;whiteSpace=wrap;rounded=0;" parent="1" vertex="1">
          <mxGeometry x="170" y="450" width="40" height="20" as="geometry" />
        </mxCell>
        <mxCell id="B5EviOWJvpMuu2dHJ6cr-20" value="" style="rounded=0;whiteSpace=wrap;html=1;fillColor=#dae8fc;strokeColor=#6c8ebf;" parent="1" vertex="1">
          <mxGeometry x="510" y="120" width="150" height="60" as="geometry" />
        </mxCell>
        <mxCell id="fdlmVdXTufxbHPEUm_Pm-7" value="" style="rounded=0;whiteSpace=wrap;html=1;fillColor=#e51400;strokeColor=#B20000;fontColor=#ffffff;" parent="1" vertex="1">
          <mxGeometry x="100" y="140" width="10" height="20" as="geometry" />
        </mxCell>
        <mxCell id="B5EviOWJvpMuu2dHJ6cr-25" value="recvbuf" style="text;html=1;strokeColor=none;fillColor=none;align=center;verticalAlign=middle;whiteSpace=wrap;rounded=0;" parent="1" vertex="1">
          <mxGeometry x="600" y="450" width="40" height="20" as="geometry" />
        </mxCell>
        <mxCell id="Uo4VEE00Q-n1pO-l_uNe-10" value="" style="rounded=0;whiteSpace=wrap;html=1;" parent="1" vertex="1">
          <mxGeometry x="200" y="300" width="10" height="20" as="geometry" />
        </mxCell>
        <mxCell id="Uo4VEE00Q-n1pO-l_uNe-11" value="" style="rounded=0;whiteSpace=wrap;html=1;" parent="1" vertex="1">
          <mxGeometry x="170" y="300" width="10" height="20" as="geometry" />
        </mxCell>
        <mxCell id="Uo4VEE00Q-n1pO-l_uNe-12" value="" style="rounded=0;whiteSpace=wrap;html=1;" parent="1" vertex="1">
          <mxGeometry x="180" y="300" width="10" height="20" as="geometry" />
        </mxCell>
        <mxCell id="Uo4VEE00Q-n1pO-l_uNe-13" value="" style="rounded=0;whiteSpace=wrap;html=1;" parent="1" vertex="1">
          <mxGeometry x="190" y="300" width="10" height="20" as="geometry" />
        </mxCell>
        <mxCell id="Uo4VEE00Q-n1pO-l_uNe-14" value="" style="rounded=0;whiteSpace=wrap;html=1;" parent="1" vertex="1">
          <mxGeometry x="200" y="380" width="10" height="20" as="geometry" />
        </mxCell>
        <mxCell id="Uo4VEE00Q-n1pO-l_uNe-15" value="" style="rounded=0;whiteSpace=wrap;html=1;" parent="1" vertex="1">
          <mxGeometry x="170" y="380" width="10" height="20" as="geometry" />
        </mxCell>
        <mxCell id="Uo4VEE00Q-n1pO-l_uNe-16" value="" style="rounded=0;whiteSpace=wrap;html=1;" parent="1" vertex="1">
          <mxGeometry x="180" y="380" width="10" height="20" as="geometry" />
        </mxCell>
        <mxCell id="Uo4VEE00Q-n1pO-l_uNe-17" value="" style="rounded=0;whiteSpace=wrap;html=1;" parent="1" vertex="1">
          <mxGeometry x="190" y="380" width="10" height="20" as="geometry" />
        </mxCell>
        <mxCell id="Uo4VEE00Q-n1pO-l_uNe-18" value="" style="rounded=0;whiteSpace=wrap;html=1;" parent="1" vertex="1">
          <mxGeometry x="200" y="140" width="10" height="20" as="geometry" />
        </mxCell>
        <mxCell id="Uo4VEE00Q-n1pO-l_uNe-19" value="" style="rounded=0;whiteSpace=wrap;html=1;" parent="1" vertex="1">
          <mxGeometry x="170" y="140" width="10" height="20" as="geometry" />
        </mxCell>
        <mxCell id="Uo4VEE00Q-n1pO-l_uNe-20" value="" style="rounded=0;whiteSpace=wrap;html=1;" parent="1" vertex="1">
          <mxGeometry x="180" y="140" width="10" height="20" as="geometry" />
        </mxCell>
        <mxCell id="Uo4VEE00Q-n1pO-l_uNe-21" value="" style="rounded=0;whiteSpace=wrap;html=1;" parent="1" vertex="1">
          <mxGeometry x="190" y="140" width="10" height="20" as="geometry" />
        </mxCell>
        <mxCell id="9ASO8rod9XRlK5T9wHeC-1" value="" style="rounded=0;whiteSpace=wrap;html=1;fillColor=#fa6800;strokeColor=#C73500;fontColor=#ffffff;" vertex="1" parent="1">
          <mxGeometry x="110" y="140" width="10" height="20" as="geometry" />
        </mxCell>
        <mxCell id="9ASO8rod9XRlK5T9wHeC-2" value="" style="rounded=0;whiteSpace=wrap;html=1;fillColor=#f0a30a;strokeColor=#BD7000;fontColor=#ffffff;" vertex="1" parent="1">
          <mxGeometry x="120" y="140" width="10" height="20" as="geometry" />
        </mxCell>
        <mxCell id="9ASO8rod9XRlK5T9wHeC-3" value="" style="rounded=0;whiteSpace=wrap;html=1;fillColor=#e3c800;strokeColor=#B09500;fontColor=#ffffff;" vertex="1" parent="1">
          <mxGeometry x="130" y="140" width="10" height="20" as="geometry" />
        </mxCell>
        <mxCell id="9ASO8rod9XRlK5T9wHeC-5" value="" style="rounded=0;whiteSpace=wrap;html=1;fillColor=#e3c800;strokeColor=#B09500;fontColor=#ffffff;" vertex="1" parent="1">
          <mxGeometry x="600" y="380" width="10" height="20" as="geometry" />
        </mxCell>
        <mxCell id="9ASO8rod9XRlK5T9wHeC-6" value="" style="rounded=0;whiteSpace=wrap;html=1;fillColor=#f0a30a;strokeColor=#BD7000;fontColor=#ffffff;" vertex="1" parent="1">
          <mxGeometry x="600" y="300" width="10" height="20" as="geometry" />
        </mxCell>
        <mxCell id="9ASO8rod9XRlK5T9wHeC-7" value="" style="rounded=0;whiteSpace=wrap;html=1;fillColor=#fa6800;strokeColor=#C73500;fontColor=#ffffff;" vertex="1" parent="1">
          <mxGeometry x="600" y="220" width="10" height="20" as="geometry" />
        </mxCell>
        <mxCell id="9ASO8rod9XRlK5T9wHeC-8" value="" style="rounded=0;whiteSpace=wrap;html=1;fillColor=#e51400;strokeColor=#B20000;fontColor=#ffffff;" vertex="1" parent="1">
          <mxGeometry x="600" y="140" width="10" height="20" as="geometry" />
        </mxCell>
        <mxCell id="9ASO8rod9XRlK5T9wHeC-9" value="" style="rounded=0;whiteSpace=wrap;html=1;fillColor=#6a00ff;strokeColor=#3700CC;fontColor=#ffffff;" vertex="1" parent="1">
          <mxGeometry x="110" y="220" width="10" height="20" as="geometry" />
        </mxCell>
        <mxCell id="9ASO8rod9XRlK5T9wHeC-10" value="" style="rounded=0;whiteSpace=wrap;html=1;fillColor=#0050ef;strokeColor=#001DBC;fontColor=#ffffff;" vertex="1" parent="1">
          <mxGeometry x="120" y="220" width="10" height="20" as="geometry" />
        </mxCell>
        <mxCell id="9ASO8rod9XRlK5T9wHeC-11" value="" style="rounded=0;whiteSpace=wrap;html=1;fillColor=#1ba1e2;strokeColor=#006EAF;fontColor=#ffffff;" vertex="1" parent="1">
          <mxGeometry x="130" y="220" width="10" height="20" as="geometry" />
        </mxCell>
        <mxCell id="9ASO8rod9XRlK5T9wHeC-12" value="" style="rounded=0;whiteSpace=wrap;html=1;fillColor=#1ba1e2;strokeColor=#006EAF;fontColor=#ffffff;" vertex="1" parent="1">
          <mxGeometry x="610" y="380" width="10" height="20" as="geometry" />
        </mxCell>
        <mxCell id="9ASO8rod9XRlK5T9wHeC-13" value="" style="rounded=0;whiteSpace=wrap;html=1;fillColor=#6a00ff;strokeColor=#3700CC;fontColor=#ffffff;" vertex="1" parent="1">
          <mxGeometry x="610" y="220" width="10" height="20" as="geometry" />
        </mxCell>
        <mxCell id="9ASO8rod9XRlK5T9wHeC-14" value="" style="rounded=0;whiteSpace=wrap;html=1;fillColor=#0050ef;strokeColor=#001DBC;fontColor=#ffffff;" vertex="1" parent="1">
          <mxGeometry x="610" y="300" width="10" height="20" as="geometry" />
        </mxCell>
        <mxCell id="9ASO8rod9XRlK5T9wHeC-15" value="" style="rounded=0;whiteSpace=wrap;html=1;fillColor=#76608a;strokeColor=#432D57;fontColor=#ffffff;" vertex="1" parent="1">
          <mxGeometry x="610" y="140" width="10" height="20" as="geometry" />
        </mxCell>
        <mxCell id="9ASO8rod9XRlK5T9wHeC-16" value="" style="rounded=0;whiteSpace=wrap;html=1;fillColor=#6d8764;strokeColor=#3A5431;fontColor=#ffffff;" vertex="1" parent="1">
          <mxGeometry x="110" y="300" width="10" height="20" as="geometry" />
        </mxCell>
        <mxCell id="9ASO8rod9XRlK5T9wHeC-17" value="" style="rounded=0;whiteSpace=wrap;html=1;fillColor=#008a00;strokeColor=#005700;fontColor=#ffffff;" vertex="1" parent="1">
          <mxGeometry x="120" y="300" width="10" height="20" as="geometry" />
        </mxCell>
        <mxCell id="9ASO8rod9XRlK5T9wHeC-18" value="" style="rounded=0;whiteSpace=wrap;html=1;fillColor=#60a917;strokeColor=#2D7600;fontColor=#ffffff;" vertex="1" parent="1">
          <mxGeometry x="130" y="300" width="10" height="20" as="geometry" />
        </mxCell>
        <mxCell id="9ASO8rod9XRlK5T9wHeC-19" value="" style="rounded=0;whiteSpace=wrap;html=1;fillColor=#60a917;strokeColor=#2D7600;fontColor=#ffffff;" vertex="1" parent="1">
          <mxGeometry x="620" y="380" width="10" height="20" as="geometry" />
        </mxCell>
        <mxCell id="9ASO8rod9XRlK5T9wHeC-20" value="" style="rounded=0;whiteSpace=wrap;html=1;fillColor=#008a00;strokeColor=#005700;fontColor=#ffffff;" vertex="1" parent="1">
          <mxGeometry x="620" y="300" width="10" height="20" as="geometry" />
        </mxCell>
        <mxCell id="9ASO8rod9XRlK5T9wHeC-21" value="" style="rounded=0;whiteSpace=wrap;html=1;fillColor=#647687;strokeColor=#314354;fontColor=#ffffff;" vertex="1" parent="1">
          <mxGeometry x="620" y="140" width="10" height="20" as="geometry" />
        </mxCell>
        <mxCell id="9ASO8rod9XRlK5T9wHeC-22" value="" style="rounded=0;whiteSpace=wrap;html=1;fillColor=#6d8764;strokeColor=#3A5431;fontColor=#ffffff;" vertex="1" parent="1">
          <mxGeometry x="620" y="220" width="10" height="20" as="geometry" />
        </mxCell>
        <mxCell id="9ASO8rod9XRlK5T9wHeC-23" value="" style="rounded=0;whiteSpace=wrap;html=1;fillColor=#d80073;strokeColor=#A50040;fontColor=#ffffff;" vertex="1" parent="1">
          <mxGeometry x="110" y="380" width="10" height="20" as="geometry" />
        </mxCell>
        <mxCell id="9ASO8rod9XRlK5T9wHeC-24" value="" style="rounded=0;whiteSpace=wrap;html=1;fillColor=#e6d0de;strokeColor=#996185;gradientColor=#d5739d;" vertex="1" parent="1">
          <mxGeometry x="120" y="380" width="10" height="20" as="geometry" />
        </mxCell>
        <mxCell id="9ASO8rod9XRlK5T9wHeC-25" value="" style="rounded=0;whiteSpace=wrap;html=1;fillColor=#ffcccc;strokeColor=#36393d;" vertex="1" parent="1">
          <mxGeometry x="130" y="380" width="10" height="20" as="geometry" />
        </mxCell>
        <mxCell id="9ASO8rod9XRlK5T9wHeC-27" value="" style="rounded=0;whiteSpace=wrap;html=1;fillColor=#ffcccc;strokeColor=#36393d;" vertex="1" parent="1">
          <mxGeometry x="630" y="380" width="10" height="20" as="geometry" />
        </mxCell>
        <mxCell id="9ASO8rod9XRlK5T9wHeC-28" value="" style="rounded=0;whiteSpace=wrap;html=1;fillColor=#d80073;strokeColor=#A50040;fontColor=#ffffff;" vertex="1" parent="1">
          <mxGeometry x="630" y="220" width="10" height="20" as="geometry" />
        </mxCell>
        <mxCell id="9ASO8rod9XRlK5T9wHeC-30" value="" style="rounded=0;whiteSpace=wrap;html=1;fillColor=#e6d0de;strokeColor=#996185;gradientColor=#d5739d;" vertex="1" parent="1">
          <mxGeometry x="630" y="300" width="10" height="20" as="geometry" />
        </mxCell>
        <mxCell id="9ASO8rod9XRlK5T9wHeC-31" value="" style="rounded=0;whiteSpace=wrap;html=1;fillColor=#a20025;strokeColor=#6F0000;fontColor=#ffffff;" vertex="1" parent="1">
          <mxGeometry x="630" y="140" width="10" height="20" as="geometry" />
        </mxCell>
      </root>
    </mxGraphModel>
  </diagram>
</mxfile>
